<?xml version="1.0" encoding="UTF-8"?>
<svg xmlns="http://www.w3.org/2000/svg" xmlns:xlink="http://www.w3.org/1999/xlink" width="100px" height="23px" viewBox="0 0 102 23" version="1.1">
<defs>
<filter id="alpha" filterUnits="objectBoundingBox" x="0%" y="0%" width="100%" height="100%">
  <feColorMatrix type="matrix" in="SourceGraphic" values="0 0 0 0 1 0 0 0 0 1 0 0 0 0 1 0 0 0 1 0"/>
</filter>
<mask id="mask0">
  <g filter="url(#alpha)">
<rect x="0" y="0" width="102" height="23" style="fill:rgb(0%,0%,0%);fill-opacity:0.901961;stroke:none;"/>
  </g>
</mask>
<clipPath id="clip1">
  <rect x="0" y="0" width="102" height="23"/>
</clipPath>
<g id="surface5" clip-path="url(#clip1)">
<path style=" stroke:none;fill-rule:evenodd;fill:rgb(18.039216%,57.647059%,47.45098%);fill-opacity:1;" d="M 6.644531 3.414062 C 8.445312 3.355469 10.238281 3.414062 12.03125 3.59375 C 12.433594 3.683594 12.792969 3.863281 13.109375 4.132812 C 12.859375 5.136719 12.5 6.09375 12.03125 7.007812 C 7.777344 5.394531 5.261719 6.832031 4.488281 11.320312 C 5.292969 15.882812 7.867188 17.320312 12.210938 15.632812 C 12.554688 16.6875 12.734375 17.765625 12.75 18.867188 C 3.402344 20.714844 -0.371094 17 1.4375 7.726562 C 2.523438 5.480469 4.261719 4.042969 6.644531 3.414062 Z M 6.644531 3.414062 "/>
</g>
<mask id="mask1">
  <g filter="url(#alpha)">
<rect x="0" y="0" width="102" height="23" style="fill:rgb(0%,0%,0%);fill-opacity:0.909804;stroke:none;"/>
  </g>
</mask>
<clipPath id="clip2">
  <rect x="0" y="0" width="102" height="23"/>
</clipPath>
<g id="surface8" clip-path="url(#clip2)">
<path style=" stroke:none;fill-rule:evenodd;fill:rgb(18.039216%,57.647059%,47.45098%);fill-opacity:1;" d="M 20.292969 3.414062 C 27.886719 2.808594 31.058594 6.28125 29.808594 13.835938 C 28.253906 18.417969 25.082031 20.15625 20.292969 19.046875 C 16.773438 17.792969 15.097656 15.277344 15.265625 11.5 C 15.085938 7.59375 16.761719 4.898438 20.292969 3.414062 Z M 21.730469 6.289062 C 24.738281 6.535156 26.292969 8.210938 26.398438 11.320312 C 26.40625 13.9375 25.207031 15.613281 22.804688 16.351562 C 20.1875 15.761719 18.871094 14.085938 18.855469 11.320312 C 18.902344 9.066406 19.859375 7.386719 21.730469 6.289062 Z M 21.730469 6.289062 "/>
</g>
<mask id="mask2">
  <g filter="url(#alpha)">
<rect x="0" y="0" width="102" height="23" style="fill:rgb(0%,0%,0%);fill-opacity:0.92549;stroke:none;"/>
  </g>
</mask>
<clipPath id="clip3">
  <rect x="0" y="0" width="102" height="23"/>
</clipPath>
<g id="surface11" clip-path="url(#clip3)">
<path style=" stroke:none;fill-rule:evenodd;fill:rgb(18.039216%,57.647059%,47.45098%);fill-opacity:1;" d="M 32.503906 3.414062 C 35.140625 3.355469 37.773438 3.414062 40.40625 3.59375 C 44.160156 4.574219 46.078125 7.027344 46.152344 10.960938 C 46.167969 15.433594 44.011719 18.128906 39.6875 19.046875 C 37.296875 19.226562 34.902344 19.285156 32.503906 19.226562 C 32.503906 13.957031 32.503906 8.683594 32.503906 3.414062 Z M 36.09375 6.289062 C 41.089844 6.199219 42.945312 8.59375 41.660156 13.476562 C 40.550781 15.800781 38.695312 16.757812 36.09375 16.351562 C 36.09375 12.996094 36.09375 9.644531 36.09375 6.289062 Z M 36.09375 6.289062 "/>
</g>
<mask id="mask3">
  <g filter="url(#alpha)">
<rect x="0" y="0" width="102" height="23" style="fill:rgb(0%,0%,0%);fill-opacity:0.968627;stroke:none;"/>
  </g>
</mask>
<clipPath id="clip4">
  <rect x="0" y="0" width="102" height="23"/>
</clipPath>
<g id="surface14" clip-path="url(#clip4)">
<path style=" stroke:none;fill-rule:evenodd;fill:rgb(18.039216%,57.647059%,47.45098%);fill-opacity:1;" d="M 49.023438 3.414062 C 52.136719 3.414062 55.25 3.414062 58.363281 3.414062 C 58.363281 4.371094 58.363281 5.332031 58.363281 6.289062 C 56.449219 6.289062 54.53125 6.289062 52.617188 6.289062 C 52.617188 7.367188 52.617188 8.445312 52.617188 9.523438 C 54.410156 9.523438 56.207031 9.523438 58.003906 9.523438 C 58.003906 10.480469 58.003906 11.441406 58.003906 12.398438 C 56.207031 12.398438 54.410156 12.398438 52.617188 12.398438 C 52.617188 13.597656 52.617188 14.792969 52.617188 15.992188 C 54.652344 15.992188 56.6875 15.992188 58.722656 15.992188 C 58.722656 16.949219 58.722656 17.910156 58.722656 18.867188 C 55.488281 18.867188 52.257812 18.867188 49.023438 18.867188 C 49.023438 13.714844 49.023438 8.566406 49.023438 3.414062 Z M 49.023438 3.414062 "/>
</g>
<mask id="mask4">
  <g filter="url(#alpha)">
<rect x="0" y="0" width="102" height="23" style="fill:rgb(0%,0%,0%);fill-opacity:0.956863;stroke:none;"/>
  </g>
</mask>
<clipPath id="clip5">
  <rect x="0" y="0" width="102" height="23"/>
</clipPath>
<g id="surface17" clip-path="url(#clip5)">
<path style=" stroke:none;fill-rule:evenodd;fill:rgb(18.039216%,57.647059%,47.45098%);fill-opacity:1;" d="M 61.59375 3.414062 C 62.792969 3.414062 63.988281 3.414062 65.1875 3.414062 C 65.1875 7.605469 65.1875 11.800781 65.1875 15.992188 C 67.222656 15.992188 69.257812 15.992188 71.292969 15.992188 C 71.292969 16.949219 71.292969 17.910156 71.292969 18.867188 C 68.058594 18.867188 64.828125 18.867188 61.59375 18.867188 C 61.59375 13.714844 61.59375 8.566406 61.59375 3.414062 Z M 61.59375 3.414062 "/>
</g>
<mask id="mask5">
  <g filter="url(#alpha)">
<rect x="0" y="0" width="102" height="23" style="fill:rgb(0%,0%,0%);fill-opacity:0.929412;stroke:none;"/>
  </g>
</mask>
<clipPath id="clip6">
  <rect x="0" y="0" width="102" height="23"/>
</clipPath>
<g id="surface20" clip-path="url(#clip6)">
<path style=" stroke:none;fill-rule:evenodd;fill:rgb(18.039216%,57.647059%,47.45098%);fill-opacity:1;" d="M 73.804688 3.414062 C 75.003906 3.414062 76.199219 3.414062 77.398438 3.414062 C 77.339844 7.011719 77.398438 10.605469 77.578125 14.195312 C 78.773438 16.710938 80.332031 16.949219 82.246094 14.914062 C 82.742188 11.101562 82.917969 7.265625 82.785156 3.414062 C 83.980469 3.414062 85.179688 3.414062 86.375 3.414062 C 86.523438 7.507812 86.34375 11.582031 85.839844 15.632812 C 84.023438 19.066406 81.210938 20.207031 77.398438 19.046875 C 76.042969 18.527344 75.023438 17.628906 74.34375 16.351562 C 73.835938 12.0625 73.65625 7.75 73.804688 3.414062 Z M 73.804688 3.414062 "/>
</g>
<mask id="mask6">
  <g filter="url(#alpha)">
<rect x="0" y="0" width="102" height="23" style="fill:rgb(0%,0%,0%);fill-opacity:0.937255;stroke:none;"/>
  </g>
</mask>
<clipPath id="clip7">
  <rect x="0" y="0" width="102" height="23"/>
</clipPath>
<g id="surface23" clip-path="url(#clip7)">
<path style=" stroke:none;fill-rule:evenodd;fill:rgb(18.039216%,57.647059%,47.45098%);fill-opacity:1;" d="M 89.96875 3.414062 C 92.605469 3.355469 95.238281 3.414062 97.871094 3.59375 C 100.738281 4.714844 101.519531 6.691406 100.203125 9.523438 C 99.671875 9.757812 99.25 10.117188 98.945312 10.601562 C 101.144531 12.300781 101.683594 14.457031 100.5625 17.070312 C 100.007812 17.746094 99.351562 18.285156 98.589844 18.6875 C 95.742188 19.175781 92.867188 19.355469 89.96875 19.226562 C 89.96875 13.957031 89.96875 8.683594 89.96875 3.414062 Z M 93.917969 5.929688 C 95.464844 5.796875 96.542969 6.398438 97.152344 7.726562 C 96.480469 9.261719 95.28125 9.859375 93.558594 9.523438 C 93.472656 8.289062 93.589844 7.089844 93.917969 5.929688 Z M 93.558594 12.039062 C 95.519531 11.828125 96.835938 12.609375 97.511719 14.375 C 96.847656 16.179688 95.53125 16.960938 93.558594 16.710938 C 93.558594 15.152344 93.558594 13.597656 93.558594 12.039062 Z M 93.558594 12.039062 "/>
</g>
</defs>
<g id="surface1">
<use xlink:href="#surface5" mask="url(#mask0)"/>
<use xlink:href="#surface8" mask="url(#mask1)"/>
<use xlink:href="#surface11" mask="url(#mask2)"/>
<use xlink:href="#surface14" mask="url(#mask3)"/>
<use xlink:href="#surface17" mask="url(#mask4)"/>
<use xlink:href="#surface20" mask="url(#mask5)"/>
<use xlink:href="#surface23" mask="url(#mask6)"/>
</g>
</svg>
